<svg width="320" height="568" viewBox="0 0 320 568" fill="none" xmlns="http://www.w3.org/2000/svg">
<g clip-path="url(#clip0)">
<rect width="320" height="568" fill="#2E1AAD"/>
<rect x="3" width="333" height="122" fill="#F3E7E0"/>
<path d="M-5.54274e-06 4.85372e-06C8.66724 4.48921e-06 17.2496 1.57782 25.2571 4.64335C33.2646 7.70889 40.5404 12.2021 46.669 17.8665C52.7977 23.5309 57.6592 30.2555 60.976 37.6563C64.2929 45.0572 66 52.9894 66 61L-2.77137e-06 61L-5.54274e-06 4.85372e-06Z" fill="#FDB830"/>
<path d="M320.5 61C312.161 61 303.904 59.4222 296.2 56.3567C288.495 53.2911 281.495 48.7979 275.599 43.1335C269.702 37.4691 265.025 30.7446 261.834 23.3437C258.642 15.9428 257 8.01063 257 -1.21319e-06L320.5 7.266e-07L320.5 61Z" fill="#EC3D08"/>
<path d="M193 61C193 69.0106 191.358 76.9428 188.166 84.3437C184.975 91.7446 180.298 98.4691 174.401 104.134C168.505 109.798 161.505 114.291 153.8 117.357C146.096 120.422 137.839 122 129.5 122L129.5 61L193 61Z" fill="#EC3D08"/>
<path d="M129.5 122C116.941 122 104.664 118.422 94.2213 111.72C83.7788 105.017 75.6398 95.49 70.8337 84.3437C66.0275 73.1974 64.77 60.9323 67.2201 49.0995C69.6703 37.2667 75.7181 26.3975 84.5987 17.8665C93.4794 9.33548 104.794 3.5258 117.112 1.1721C129.43 -1.1816 142.197 0.0264036 153.8 4.64335C165.404 9.26029 175.321 17.0788 182.298 27.1102C189.276 37.1416 193 48.9353 193 61L129.5 61L129.5 122Z" fill="#FDB830"/>
<path d="M193.5 61C201.839 61 210.096 62.5778 217.8 65.6434C225.505 68.7089 232.505 73.2021 238.401 78.8665C244.298 84.5309 248.975 91.2555 252.166 98.6563C255.358 106.057 257 113.989 257 122L193.5 122L193.5 61Z" fill="#FDB830"/>
<path d="M257 122C257 113.989 258.642 106.057 261.834 98.6563C265.025 91.2555 269.702 84.5309 275.599 78.8665C281.495 73.2021 288.495 68.7089 296.2 65.6433C303.904 62.5778 312.161 61 320.5 61L320.5 122L257 122Z" fill="#2E1AAD"/>
<path d="M257 0C257 8.01063 255.358 15.9428 252.166 23.3437C248.975 30.7446 244.298 37.4691 238.401 43.1335C232.505 48.7979 225.505 53.2911 217.8 56.3567C210.096 59.4222 201.839 61 193.5 61L193.5 0L257 0Z" fill="#2E1AAD"/>
<path d="M66 61C66 52.9894 67.6425 45.0572 70.8336 37.6563C74.0248 30.2555 78.7022 23.5309 84.5987 17.8665C90.4952 12.2021 97.4954 7.70889 105.2 4.64335C112.904 1.57781 121.161 -1.95323e-06 129.5 -2.3026e-06L129.5 61L66 61Z" fill="#2E1AAD"/>
<path d="M66 61C66 69.0106 64.2929 76.9428 60.976 84.3437C57.6592 91.7446 52.7977 98.4691 46.669 104.134C40.5404 109.798 33.2646 114.291 25.2571 117.357C17.2496 120.422 8.66724 122 -2.88495e-06 122L0 61L66 61Z" fill="#EC3D08"/>
</g>
<defs>
<clipPath id="clip0">
<rect width="320" height="568" fill="white"/>
</clipPath>
</defs>
</svg>
